<?xml version="1.0" encoding="UTF-8" standalone="no"?>
<!DOCTYPE svg PUBLIC "-//W3C//DTD SVG 1.1//EN"
 "http://www.w3.org/Graphics/SVG/1.1/DTD/svg11.dtd">
<!-- Generated by graphviz version 2.49.3 (0)
 -->
<!-- Pages: 1 -->
<svg width="1089pt" height="620pt"
 viewBox="0.00 0.00 1089.43 620.00" xmlns="http://www.w3.org/2000/svg" xmlns:xlink="http://www.w3.org/1999/xlink">
<g id="graph0" class="graph" transform="scale(1 1) rotate(0) translate(4 616)">
<polygon fill="white" stroke="transparent" points="-4,4 -4,-616 1085.43,-616 1085.43,4 -4,4"/>
<!-- [root] aws_instance.nginx&#45;app (expand) -->
<g id="node1" class="node">
<title>[root] aws_instance.nginx&#45;app (expand)</title>
<polygon fill="none" stroke="black" points="797.43,-396 612.43,-396 612.43,-360 797.43,-360 797.43,-396"/>
<text text-anchor="middle" x="704.93" y="-374.3" font-family="Times,serif" font-size="14.00">aws_instance.nginx&#45;app</text>
</g>
<!-- [root] aws_network_interface.nginx&#45;network_interface (expand) -->
<g id="node3" class="node">
<title>[root] aws_network_interface.nginx&#45;network_interface (expand)</title>
<polygon fill="none" stroke="black" points="883.43,-324 526.43,-324 526.43,-288 883.43,-288 883.43,-324"/>
<text text-anchor="middle" x="704.93" y="-302.3" font-family="Times,serif" font-size="14.00">aws_network_interface.nginx&#45;network_interface</text>
</g>
<!-- [root] aws_instance.nginx&#45;app (expand)&#45;&gt;[root] aws_network_interface.nginx&#45;network_interface (expand) -->
<g id="edge1" class="edge">
<title>[root] aws_instance.nginx&#45;app (expand)&#45;&gt;[root] aws_network_interface.nginx&#45;network_interface (expand)</title>
<path fill="none" stroke="black" d="M704.93,-359.7C704.93,-351.98 704.93,-342.71 704.93,-334.11"/>
<polygon fill="black" stroke="black" points="708.43,-334.1 704.93,-324.1 701.43,-334.1 708.43,-334.1"/>
</g>
<!-- [root] data.aws_ami.ubuntu (expand) -->
<g id="node7" class="node">
<title>[root] data.aws_ami.ubuntu (expand)</title>
<polygon fill="none" stroke="black" points="935.43,-180 766.43,-180 766.43,-144 935.43,-144 935.43,-180"/>
<text text-anchor="middle" x="850.93" y="-158.3" font-family="Times,serif" font-size="14.00">data.aws_ami.ubuntu</text>
</g>
<!-- [root] aws_instance.nginx&#45;app (expand)&#45;&gt;[root] data.aws_ami.ubuntu (expand) -->
<g id="edge2" class="edge">
<title>[root] aws_instance.nginx&#45;app (expand)&#45;&gt;[root] data.aws_ami.ubuntu (expand)</title>
<path fill="none" stroke="black" d="M797.62,-361.53C838.39,-352.65 879.8,-340.05 891.93,-324 922.51,-283.55 891.76,-222.74 869.49,-188.6"/>
<polygon fill="black" stroke="black" points="872.26,-186.45 863.77,-180.12 866.46,-190.37 872.26,-186.45"/>
</g>
<!-- [root] var.instance_type -->
<g id="node12" class="node">
<title>[root] var.instance_type</title>
<polygon fill="none" stroke="black" points="1075.43,-324 940.43,-324 940.43,-288 1081.43,-288 1081.43,-318 1075.43,-324"/>
<polyline fill="none" stroke="black" points="1075.43,-324 1075.43,-318 "/>
<polyline fill="none" stroke="black" points="1081.43,-318 1075.43,-318 "/>
<text text-anchor="middle" x="1010.93" y="-302.3" font-family="Times,serif" font-size="14.00">var.instance_type</text>
</g>
<!-- [root] aws_instance.nginx&#45;app (expand)&#45;&gt;[root] var.instance_type -->
<g id="edge3" class="edge">
<title>[root] aws_instance.nginx&#45;app (expand)&#45;&gt;[root] var.instance_type</title>
<path fill="none" stroke="black" d="M779.39,-359.97C825.14,-349.5 883.75,-336.09 930.55,-325.39"/>
<polygon fill="black" stroke="black" points="931.38,-328.79 940.35,-323.15 929.82,-321.96 931.38,-328.79"/>
</g>
<!-- [root] var.ssh_key_file -->
<g id="node15" class="node">
<title>[root] var.ssh_key_file</title>
<polygon fill="none" stroke="black" points="379.43,-324 258.43,-324 258.43,-288 385.43,-288 385.43,-318 379.43,-324"/>
<polyline fill="none" stroke="black" points="379.43,-324 379.43,-318 "/>
<polyline fill="none" stroke="black" points="385.43,-318 379.43,-318 "/>
<text text-anchor="middle" x="321.93" y="-302.3" font-family="Times,serif" font-size="14.00">var.ssh_key_file</text>
</g>
<!-- [root] aws_instance.nginx&#45;app (expand)&#45;&gt;[root] var.ssh_key_file -->
<g id="edge4" class="edge">
<title>[root] aws_instance.nginx&#45;app (expand)&#45;&gt;[root] var.ssh_key_file</title>
<path fill="none" stroke="black" d="M612.11,-362.75C552.68,-353.26 473.72,-339.97 395.51,-324.26"/>
<polygon fill="black" stroke="black" points="395.98,-320.79 385.49,-322.24 394.59,-327.65 395.98,-320.79"/>
</g>
<!-- [root] var.ssh_user -->
<g id="node16" class="node">
<title>[root] var.ssh_user</title>
<polygon fill="none" stroke="black" points="502.43,-324 403.43,-324 403.43,-288 508.43,-288 508.43,-318 502.43,-324"/>
<polyline fill="none" stroke="black" points="502.43,-324 502.43,-318 "/>
<polyline fill="none" stroke="black" points="508.43,-318 502.43,-318 "/>
<text text-anchor="middle" x="455.93" y="-302.3" font-family="Times,serif" font-size="14.00">var.ssh_user</text>
</g>
<!-- [root] aws_instance.nginx&#45;app (expand)&#45;&gt;[root] var.ssh_user -->
<g id="edge5" class="edge">
<title>[root] aws_instance.nginx&#45;app (expand)&#45;&gt;[root] var.ssh_user</title>
<path fill="none" stroke="black" d="M644.34,-359.97C606.28,-349.27 557.29,-335.49 518.81,-324.68"/>
<polygon fill="black" stroke="black" points="519.33,-321.19 508.76,-321.85 517.44,-327.93 519.33,-321.19"/>
</g>
<!-- [root] aws_key_pair.nginx (expand) -->
<g id="node2" class="node">
<title>[root] aws_key_pair.nginx (expand)</title>
<polygon fill="none" stroke="black" points="350.93,-468 196.93,-468 196.93,-432 350.93,-432 350.93,-468"/>
<text text-anchor="middle" x="273.93" y="-446.3" font-family="Times,serif" font-size="14.00">aws_key_pair.nginx</text>
</g>
<!-- [root] provider[&quot;registry.terraform.io/hashicorp/aws&quot;] -->
<g id="node9" class="node">
<title>[root] provider[&quot;registry.terraform.io/hashicorp/aws&quot;]</title>
<polygon fill="none" stroke="black" points="537.93,-108 212.67,-90 537.93,-72 863.19,-90 537.93,-108"/>
<text text-anchor="middle" x="537.93" y="-86.3" font-family="Times,serif" font-size="14.00">provider[&quot;registry.terraform.io/hashicorp/aws&quot;]</text>
</g>
<!-- [root] aws_key_pair.nginx (expand)&#45;&gt;[root] provider[&quot;registry.terraform.io/hashicorp/aws&quot;] -->
<g id="edge6" class="edge">
<title>[root] aws_key_pair.nginx (expand)&#45;&gt;[root] provider[&quot;registry.terraform.io/hashicorp/aws&quot;]</title>
<path fill="none" stroke="black" d="M264.55,-431.75C259.34,-421.59 253.09,-408.34 248.93,-396 235.99,-357.68 229.93,-347.45 229.93,-307 229.93,-307 229.93,-307 229.93,-233 229.93,-153.08 316.51,-117.99 397.87,-102.66"/>
<polygon fill="black" stroke="black" points="398.53,-106.09 407.76,-100.88 397.3,-99.2 398.53,-106.09"/>
</g>
<!-- [root] var.public_key -->
<g id="node13" class="node">
<title>[root] var.public_key</title>
<polygon fill="none" stroke="black" points="369.93,-396 257.93,-396 257.93,-360 375.93,-360 375.93,-390 369.93,-396"/>
<polyline fill="none" stroke="black" points="369.93,-396 369.93,-390 "/>
<polyline fill="none" stroke="black" points="375.93,-390 369.93,-390 "/>
<text text-anchor="middle" x="316.93" y="-374.3" font-family="Times,serif" font-size="14.00">var.public_key</text>
</g>
<!-- [root] aws_key_pair.nginx (expand)&#45;&gt;[root] var.public_key -->
<g id="edge7" class="edge">
<title>[root] aws_key_pair.nginx (expand)&#45;&gt;[root] var.public_key</title>
<path fill="none" stroke="black" d="M284.56,-431.7C289.56,-423.56 295.62,-413.69 301.14,-404.7"/>
<polygon fill="black" stroke="black" points="304.17,-406.46 306.42,-396.1 298.21,-402.79 304.17,-406.46"/>
</g>
<!-- [root] aws_security_group.nginx&#45;security&#45;group (expand) -->
<g id="node4" class="node">
<title>[root] aws_security_group.nginx&#45;security&#45;group (expand)</title>
<polygon fill="none" stroke="black" points="871.93,-252 561.93,-252 561.93,-216 871.93,-216 871.93,-252"/>
<text text-anchor="middle" x="716.93" y="-230.3" font-family="Times,serif" font-size="14.00">aws_security_group.nginx&#45;security&#45;group</text>
</g>
<!-- [root] aws_network_interface.nginx&#45;network_interface (expand)&#45;&gt;[root] aws_security_group.nginx&#45;security&#45;group (expand) -->
<g id="edge8" class="edge">
<title>[root] aws_network_interface.nginx&#45;network_interface (expand)&#45;&gt;[root] aws_security_group.nginx&#45;security&#45;group (expand)</title>
<path fill="none" stroke="black" d="M707.9,-287.7C709.22,-279.98 710.81,-270.71 712.28,-262.11"/>
<polygon fill="black" stroke="black" points="715.76,-262.55 714,-252.1 708.86,-261.37 715.76,-262.55"/>
</g>
<!-- [root] aws_subnet.default (expand) -->
<g id="node5" class="node">
<title>[root] aws_subnet.default (expand)</title>
<polygon fill="none" stroke="black" points="543.43,-252 388.43,-252 388.43,-216 543.43,-216 543.43,-252"/>
<text text-anchor="middle" x="465.93" y="-230.3" font-family="Times,serif" font-size="14.00">aws_subnet.default</text>
</g>
<!-- [root] aws_network_interface.nginx&#45;network_interface (expand)&#45;&gt;[root] aws_subnet.default (expand) -->
<g id="edge9" class="edge">
<title>[root] aws_network_interface.nginx&#45;network_interface (expand)&#45;&gt;[root] aws_subnet.default (expand)</title>
<path fill="none" stroke="black" d="M646.77,-287.97C612.8,-278.01 569.75,-265.41 534.17,-254.99"/>
<polygon fill="black" stroke="black" points="534.93,-251.56 524.35,-252.11 532.96,-258.28 534.93,-251.56"/>
</g>
<!-- [root] aws_vpc.default (expand) -->
<g id="node6" class="node">
<title>[root] aws_vpc.default (expand)</title>
<polygon fill="none" stroke="black" points="603.43,-180 472.43,-180 472.43,-144 603.43,-144 603.43,-180"/>
<text text-anchor="middle" x="537.93" y="-158.3" font-family="Times,serif" font-size="14.00">aws_vpc.default</text>
</g>
<!-- [root] aws_security_group.nginx&#45;security&#45;group (expand)&#45;&gt;[root] aws_vpc.default (expand) -->
<g id="edge10" class="edge">
<title>[root] aws_security_group.nginx&#45;security&#45;group (expand)&#45;&gt;[root] aws_vpc.default (expand)</title>
<path fill="none" stroke="black" d="M673.14,-215.88C648.35,-206.18 617.15,-193.98 590.97,-183.74"/>
<polygon fill="black" stroke="black" points="592.16,-180.45 581.58,-180.07 589.61,-186.97 592.16,-180.45"/>
</g>
<!-- [root] aws_subnet.default (expand)&#45;&gt;[root] aws_vpc.default (expand) -->
<g id="edge11" class="edge">
<title>[root] aws_subnet.default (expand)&#45;&gt;[root] aws_vpc.default (expand)</title>
<path fill="none" stroke="black" d="M483.73,-215.7C492.53,-207.14 503.31,-196.66 512.93,-187.3"/>
<polygon fill="black" stroke="black" points="515.61,-189.58 520.34,-180.1 510.73,-184.57 515.61,-189.58"/>
</g>
<!-- [root] aws_vpc.default (expand)&#45;&gt;[root] provider[&quot;registry.terraform.io/hashicorp/aws&quot;] -->
<g id="edge12" class="edge">
<title>[root] aws_vpc.default (expand)&#45;&gt;[root] provider[&quot;registry.terraform.io/hashicorp/aws&quot;]</title>
<path fill="none" stroke="black" d="M537.93,-143.7C537.93,-135.98 537.93,-126.71 537.93,-118.11"/>
<polygon fill="black" stroke="black" points="541.43,-118.1 537.93,-108.1 534.43,-118.1 541.43,-118.1"/>
</g>
<!-- [root] data.aws_ami.ubuntu (expand)&#45;&gt;[root] provider[&quot;registry.terraform.io/hashicorp/aws&quot;] -->
<g id="edge13" class="edge">
<title>[root] data.aws_ami.ubuntu (expand)&#45;&gt;[root] provider[&quot;registry.terraform.io/hashicorp/aws&quot;]</title>
<path fill="none" stroke="black" d="M774.76,-143.97C724.23,-132.66 658.36,-117.93 608.93,-106.88"/>
<polygon fill="black" stroke="black" points="609.47,-103.41 598.95,-104.65 607.95,-110.25 609.47,-103.41"/>
</g>
<!-- [root] output.ip_address -->
<g id="node8" class="node">
<title>[root] output.ip_address</title>
<polygon fill="none" stroke="black" points="614.43,-468 475.43,-468 475.43,-432 620.43,-432 620.43,-462 614.43,-468"/>
<polyline fill="none" stroke="black" points="614.43,-468 614.43,-462 "/>
<polyline fill="none" stroke="black" points="620.43,-462 614.43,-462 "/>
<text text-anchor="middle" x="547.93" y="-446.3" font-family="Times,serif" font-size="14.00">output.ip_address</text>
</g>
<!-- [root] output.ip_address&#45;&gt;[root] aws_instance.nginx&#45;app (expand) -->
<g id="edge16" class="edge">
<title>[root] output.ip_address&#45;&gt;[root] aws_instance.nginx&#45;app (expand)</title>
<path fill="none" stroke="black" d="M586.34,-431.88C607.8,-422.31 634.73,-410.3 657.5,-400.15"/>
<polygon fill="black" stroke="black" points="658.94,-403.34 666.65,-396.07 656.09,-396.94 658.94,-403.34"/>
</g>
<!-- [root] var.aws_access_key -->
<g id="node10" class="node">
<title>[root] var.aws_access_key</title>
<polygon fill="none" stroke="black" points="437.43,-36 288.43,-36 288.43,0 443.43,0 443.43,-30 437.43,-36"/>
<polyline fill="none" stroke="black" points="437.43,-36 437.43,-30 "/>
<polyline fill="none" stroke="black" points="443.43,-30 437.43,-30 "/>
<text text-anchor="middle" x="365.93" y="-14.3" font-family="Times,serif" font-size="14.00">var.aws_access_key</text>
</g>
<!-- [root] provider[&quot;registry.terraform.io/hashicorp/aws&quot;]&#45;&gt;[root] var.aws_access_key -->
<g id="edge19" class="edge">
<title>[root] provider[&quot;registry.terraform.io/hashicorp/aws&quot;]&#45;&gt;[root] var.aws_access_key</title>
<path fill="none" stroke="black" d="M501.03,-73.98C476.57,-64.03 444.15,-50.83 417.19,-39.86"/>
<polygon fill="black" stroke="black" points="418.49,-36.61 407.91,-36.08 415.85,-43.1 418.49,-36.61"/>
</g>
<!-- [root] var.aws_secret_key -->
<g id="node11" class="node">
<title>[root] var.aws_secret_key</title>
<polygon fill="none" stroke="black" points="608.43,-36 461.43,-36 461.43,0 614.43,0 614.43,-30 608.43,-36"/>
<polyline fill="none" stroke="black" points="608.43,-36 608.43,-30 "/>
<polyline fill="none" stroke="black" points="614.43,-30 608.43,-30 "/>
<text text-anchor="middle" x="537.93" y="-14.3" font-family="Times,serif" font-size="14.00">var.aws_secret_key</text>
</g>
<!-- [root] provider[&quot;registry.terraform.io/hashicorp/aws&quot;]&#45;&gt;[root] var.aws_secret_key -->
<g id="edge20" class="edge">
<title>[root] provider[&quot;registry.terraform.io/hashicorp/aws&quot;]&#45;&gt;[root] var.aws_secret_key</title>
<path fill="none" stroke="black" d="M537.93,-71.7C537.93,-63.98 537.93,-54.71 537.93,-46.11"/>
<polygon fill="black" stroke="black" points="541.43,-46.1 537.93,-36.1 534.43,-46.1 541.43,-46.1"/>
</g>
<!-- [root] var.region_name -->
<g id="node14" class="node">
<title>[root] var.region_name</title>
<polygon fill="none" stroke="black" points="760.93,-36 632.93,-36 632.93,0 766.93,0 766.93,-30 760.93,-36"/>
<polyline fill="none" stroke="black" points="760.93,-36 760.93,-30 "/>
<polyline fill="none" stroke="black" points="766.93,-30 760.93,-30 "/>
<text text-anchor="middle" x="699.93" y="-14.3" font-family="Times,serif" font-size="14.00">var.region_name</text>
</g>
<!-- [root] provider[&quot;registry.terraform.io/hashicorp/aws&quot;]&#45;&gt;[root] var.region_name -->
<g id="edge21" class="edge">
<title>[root] provider[&quot;registry.terraform.io/hashicorp/aws&quot;]&#45;&gt;[root] var.region_name</title>
<path fill="none" stroke="black" d="M573.08,-73.81C595.94,-63.93 626.06,-50.92 651.21,-40.05"/>
<polygon fill="black" stroke="black" points="652.79,-43.18 660.58,-36 650.02,-36.76 652.79,-43.18"/>
</g>
<!-- [root] meta.count&#45;boundary (EachMode fixup) -->
<g id="node17" class="node">
<title>[root] meta.count&#45;boundary (EachMode fixup)</title>
<ellipse fill="none" stroke="black" cx="222.93" cy="-522" rx="222.86" ry="18"/>
<text text-anchor="middle" x="222.93" y="-518.3" font-family="Times,serif" font-size="14.00">[root] meta.count&#45;boundary (EachMode fixup)</text>
</g>
<!-- [root] meta.count&#45;boundary (EachMode fixup)&#45;&gt;[root] aws_key_pair.nginx (expand) -->
<g id="edge14" class="edge">
<title>[root] meta.count&#45;boundary (EachMode fixup)&#45;&gt;[root] aws_key_pair.nginx (expand)</title>
<path fill="none" stroke="black" d="M235.54,-503.7C241.53,-495.47 248.81,-485.48 255.41,-476.42"/>
<polygon fill="black" stroke="black" points="258.41,-478.25 261.47,-468.1 252.75,-474.13 258.41,-478.25"/>
</g>
<!-- [root] meta.count&#45;boundary (EachMode fixup)&#45;&gt;[root] output.ip_address -->
<g id="edge15" class="edge">
<title>[root] meta.count&#45;boundary (EachMode fixup)&#45;&gt;[root] output.ip_address</title>
<path fill="none" stroke="black" d="M297.49,-504.94C347.67,-494.13 413.85,-479.88 465.58,-468.74"/>
<polygon fill="black" stroke="black" points="466.35,-472.15 475.39,-466.62 464.88,-465.31 466.35,-472.15"/>
</g>
<!-- [root] provider[&quot;registry.terraform.io/hashicorp/aws&quot;] (close) -->
<g id="node18" class="node">
<title>[root] provider[&quot;registry.terraform.io/hashicorp/aws&quot;] (close)</title>
<ellipse fill="none" stroke="black" cx="755.93" cy="-522" rx="291.65" ry="18"/>
<text text-anchor="middle" x="755.93" y="-518.3" font-family="Times,serif" font-size="14.00">[root] provider[&quot;registry.terraform.io/hashicorp/aws&quot;] (close)</text>
</g>
<!-- [root] provider[&quot;registry.terraform.io/hashicorp/aws&quot;] (close)&#45;&gt;[root] aws_instance.nginx&#45;app (expand) -->
<g id="edge17" class="edge">
<title>[root] provider[&quot;registry.terraform.io/hashicorp/aws&quot;] (close)&#45;&gt;[root] aws_instance.nginx&#45;app (expand)</title>
<path fill="none" stroke="black" d="M749.78,-503.87C741.01,-479.46 724.84,-434.43 714.5,-405.64"/>
<polygon fill="black" stroke="black" points="717.78,-404.42 711.1,-396.19 711.19,-406.78 717.78,-404.42"/>
</g>
<!-- [root] provider[&quot;registry.terraform.io/hashicorp/aws&quot;] (close)&#45;&gt;[root] aws_key_pair.nginx (expand) -->
<g id="edge18" class="edge">
<title>[root] provider[&quot;registry.terraform.io/hashicorp/aws&quot;] (close)&#45;&gt;[root] aws_key_pair.nginx (expand)</title>
<path fill="none" stroke="black" d="M647.46,-505.25C561.07,-492.7 441.71,-475.37 361.37,-463.7"/>
<polygon fill="black" stroke="black" points="361.68,-460.21 351.28,-462.23 360.67,-467.13 361.68,-460.21"/>
</g>
<!-- [root] root -->
<g id="node19" class="node">
<title>[root] root</title>
<ellipse fill="none" stroke="black" cx="488.93" cy="-594" rx="58.49" ry="18"/>
<text text-anchor="middle" x="488.93" y="-590.3" font-family="Times,serif" font-size="14.00">[root] root</text>
</g>
<!-- [root] root&#45;&gt;[root] meta.count&#45;boundary (EachMode fixup) -->
<g id="edge22" class="edge">
<title>[root] root&#45;&gt;[root] meta.count&#45;boundary (EachMode fixup)</title>
<path fill="none" stroke="black" d="M445.9,-581.68C405.18,-570.96 343.28,-554.67 295.03,-541.97"/>
<polygon fill="black" stroke="black" points="295.82,-538.56 285.26,-539.4 294.04,-545.33 295.82,-538.56"/>
</g>
<!-- [root] root&#45;&gt;[root] provider[&quot;registry.terraform.io/hashicorp/aws&quot;] (close) -->
<g id="edge23" class="edge">
<title>[root] root&#45;&gt;[root] provider[&quot;registry.terraform.io/hashicorp/aws&quot;] (close)</title>
<path fill="none" stroke="black" d="M531.83,-581.75C572.44,-571.11 634.24,-554.9 682.66,-542.21"/>
<polygon fill="black" stroke="black" points="683.68,-545.56 692.47,-539.64 681.91,-538.79 683.68,-545.56"/>
</g>
</g>
</svg>
